<svg xmlns="http://www.w3.org/2000/svg" version="1.1" xmlns:xlink="http://www.w3.org/1999/xlink" xmlns:svgjs="http://svgjs.dev/svgjs" width="1000" height="262" viewBox="0 0 1000 262"><g transform="matrix(1,0,0,1,-0.6060606060606233,-0.23551474044165843)"><svg viewBox="0 0 396 104" data-background-color="#ffffff" preserveAspectRatio="xMidYMid meet" height="262" width="1000" xmlns="http://www.w3.org/2000/svg" xmlns:xlink="http://www.w3.org/1999/xlink"><g id="tight-bounds" transform="matrix(1,0,0,1,0.2400000000000091,0.09348676719821469)"><svg viewBox="0 0 395.52 103.81301746705684" height="103.81301746705684" width="395.52"><g><svg viewBox="0 0 554.0828807113364 145.43137078651685" height="103.81301746705684" width="395.52"><g transform="matrix(1,0,0,1,158.5628807113365,44.94040449438202)"><svg viewBox="0 0 395.52 55.55056179775281" height="55.55056179775281" width="395.52"><g id="textblocktransform"><svg viewBox="0 0 395.52 55.55056179775281" height="55.55056179775281" width="395.52" id="textblock"><g><svg viewBox="0 0 395.52 55.55056179775281" height="55.55056179775281" width="395.52"><g transform="matrix(1,0,0,1,0,0)"><svg width="395.52" viewBox="3.049999952316284 -35.79999923706055 258.08001708984375 36.25" height="55.55056179775281" data-palette-color="#00cccc"><path d="M24.7-35.5L34.45-35.5 34.45 0 24.7 0 24.7-13.9 12.8-13.9 12.8 0 3.05 0 3.05-35.5 12.8-35.5 12.8-22.4 24.7-22.4 24.7-35.5ZM37.4 0L48.75-35.5 59.65-35.5 70.95 0 61.05 0 58.9-6.95 49.45-6.95 47.35 0 37.4 0ZM50.9-13.45L57.35-13.45 54.2-25.95 50.9-13.45ZM66.95-35.5L77.5-35.5 83.84-21 90.34-35.5 100.95-35.5 88.7-11.75 88.7 0 79 0 79-11.85 66.95-35.5ZM96.84 0L108.19-35.5 119.09-35.5 130.39 0 120.49 0 118.34-6.95 108.89-6.95 106.79 0 96.84 0ZM110.34-13.45L116.79-13.45 113.64-25.95 110.34-13.45ZM158.64-31.95L154.44-23.9Q154.44-23.9 153.59-24.4 152.74-24.9 151.34-25.53 149.94-26.15 148.29-26.65 146.64-27.15 145.04-27.15L145.04-27.15Q143.79-27.15 142.99-26.75 142.19-26.35 142.19-25.4L142.19-25.4Q142.19-24.5 142.99-23.95 143.79-23.4 145.27-22.95 146.74-22.5 148.79-21.85L148.79-21.85Q152.09-20.85 154.49-19.55 156.89-18.25 158.19-16.23 159.49-14.2 159.49-10.85L159.49-10.85Q159.49-7.65 158.34-5.48 157.19-3.3 155.24-2 153.29-0.7 150.89-0.13 148.49 0.45 145.99 0.45L145.99 0.45Q143.44 0.45 140.67-0.08 137.89-0.6 135.29-1.53 132.69-2.45 130.54-3.7L130.54-3.7 134.74-12.25Q134.74-12.25 135.74-11.65 136.74-11.05 138.39-10.3 140.04-9.55 142.07-8.95 144.09-8.35 146.14-8.35L146.14-8.35Q147.74-8.35 148.37-8.78 148.99-9.2 148.99-9.9L148.99-9.9Q148.99-10.95 147.89-11.53 146.79-12.1 145.02-12.63 143.24-13.15 141.09-13.85L141.09-13.85Q137.99-14.9 135.99-16.23 133.99-17.55 133.04-19.38 132.09-21.2 132.09-23.8L132.09-23.8Q132.09-27.75 133.94-30.4 135.79-33.05 138.82-34.43 141.84-35.8 145.34-35.8L145.34-35.8Q147.94-35.8 150.37-35.18 152.79-34.55 154.92-33.65 157.04-32.75 158.64-31.95L158.64-31.95ZM159.74 0L171.09-35.5 181.99-35.5 193.29 0 183.39 0 181.24-6.95 171.79-6.95 169.69 0 159.74 0ZM173.24-13.45L179.69-13.45 176.54-25.95 173.24-13.45ZM205.99 0L196.24 0 196.24-35.5 205.99-35.5 205.99-22 216.78-35.5 227.78-35.5 214.88-19.6 228.69 0 217.49 0 208.69-13.05 205.99-10.25 205.99 0ZM227.58 0L238.93-35.5 249.83-35.5 261.13 0 251.23 0 249.08-6.95 239.63-6.95 237.53 0 227.58 0ZM241.08-13.45L247.53-13.45 244.38-25.95 241.08-13.45Z" opacity="1" transform="matrix(1,0,0,1,0,0)" fill="#00cccc" class="wordmark-text-0" data-fill-palette-color="primary" id="text-0"></path></svg></g></svg></g></svg></g></svg></g><g><svg viewBox="0 0 145.44872628437022 145.43137078651685" height="145.43137078651685" width="145.44872628437022"><g><svg xmlns="http://www.w3.org/2000/svg" xmlns:xlink="http://www.w3.org/1999/xlink" version="1.1" x="0" y="0" viewBox="0 0 99.99992370605469 99.98799133300781" enable-background="new 0 0 100 100" xml:space="preserve" height="145.43137078651685" width="145.44872628437022" class="icon-icon-0" data-fill-palette-color="accent" id="icon-0"><g fill="#00cccc" data-fill-palette-color="accent"><path fill-rule="evenodd" clip-rule="evenodd" d="M47.102 0c1.928 0 3.856 0 5.784 0 8.338 0.642 15.042 2.917 20.99 5.95-9.545 9.958-19.296 19.708-29.253 29.252-2.969-3.846-6.214-6.932-13.221-6.279-6.848 0.638-12.008 6.789-12.065 13.552-0.093 11.1 12.636 17.426 21.981 11.239 2.455-1.625 4.708-4.378 6.941-6.611 6.658-6.659 13.369-13.473 19.997-20.164 5.471 4.927 10.706 10.542 16.196 16.032 0.574 0.574 2.305 1.916 2.314 2.148 0.021 0.503-3.571 3.738-3.967 4.132-4.035 4.035-8.129 8.161-12.23 11.9-2.845-5.982-12.565-8.104-18.84-4.297-3.834 2.326-6.286 6.06-6.446 11.238-0.221 7.125 4.855 13.32 11.9 14.047 9.767 1.009 13.735-5.969 18.51-10.742 8.042-8.042 16.394-16.425 24.295-23.963 0.308 16.392-5.383 28.214-13.388 36.524-8.017 8.322-18.679 14.98-33.715 16.03-1.928 0-3.855 0-5.784 0-14.023-1.231-24.828-6.812-32.558-14.543C6.814 77.715 1.225 66.916 0 52.887c0-1.929 0-3.857 0-5.785C0.812 33.583 7.182 22 14.709 14.544 22.682 6.645 33.328 1.089 47.102 0z" fill="#00cccc" data-fill-palette-color="accent"></path></g></svg></g></svg></g></svg></g><defs></defs></svg><rect width="395.52" height="103.81301746705684" fill="none" stroke="none" visibility="hidden"></rect></g></svg></g></svg>